<svg version="1.1" id="Layer_1" xmlns="http://www.w3.org/2000/svg" xmlns:xlink="http://www.w3.org/1999/xlink" x="0px" y="0px"
	 width="100%" viewBox="0 0 1024 768" enable-background="new 0 0 1024 768" xml:space="preserve">
<path fill="#f7f7f7" opacity="1.000000" stroke="none" 
	d="
M788.816223,236.685852 
	C801.017517,237.824997 808.689087,244.197327 812.096375,255.315109 
	C815.402527,266.103241 812.073364,275.482208 804.211121,283.107452 
	C776.832336,309.660919 749.327515,336.084686 721.828552,362.513916 
	C692.167725,391.020813 662.413330,419.430542 632.784607,447.970764 
	C601.953674,477.669067 571.280457,507.531281 540.424438,537.203369 
	C526.624756,550.473633 507.207214,548.169922 497.741882,532.420532 
	C491.849243,522.615723 493.421936,508.790466 501.875763,500.551300 
	C523.586487,479.391876 545.460815,458.400330 567.291016,437.363647 
	C593.318237,412.282349 619.347717,387.203278 645.411926,362.160492 
	C686.369995,322.807587 727.348389,283.475861 768.344543,244.162628 
	C773.910217,238.825485 780.676086,236.456100 788.816223,236.685852 
z"/>
<path fill="#f7f7f7" opacity="1.000000" stroke="none" 
	d="
M349.099670,515.831543 
	C349.336334,507.149597 352.735931,500.399475 358.660187,494.690216 
	C399.454163,455.377045 440.176849,415.989807 480.968506,376.674225 
	C513.360168,345.454712 545.806824,314.292236 578.249939,283.126190 
	C592.668213,269.275513 607.113953,255.453201 621.591187,241.664108 
	C636.424561,227.535812 658.800720,232.549530 665.164368,251.828568 
	C668.659485,262.417389 666.125916,272.244812 657.875732,280.199219 
	C617.335083,319.286285 576.782043,358.360565 536.245972,397.452301 
	C496.551361,435.732422 456.873596,474.030060 417.184052,512.315491 
	C410.109375,519.139893 403.008881,525.937622 395.928131,532.755798 
	C388.165741,540.230347 379.105225,543.618164 368.528442,540.419067 
	C357.635590,537.124329 351.290588,529.528259 349.521759,518.215576 
	C349.418823,517.557556 349.270416,516.906555 349.099670,515.831543 
z"/>
<path fill="#f7f7f7" opacity="1.000000" stroke="none" 
	d="
M439.786072,346.787659 
	C392.870636,391.994507 346.210693,436.957001 299.545532,481.914124 
	C283.590881,497.284790 267.377930,512.397583 251.742844,528.086426 
	C240.287949,539.580750 226.287231,539.318420 217.981140,534.863098 
	C201.812698,526.190491 198.952377,504.985168 212.339783,492.017212 
	C238.306946,466.863525 264.439667,441.880768 290.490662,416.813599 
	C327.221924,381.469482 363.934235,346.105713 400.668182,310.764374 
	C425.879211,286.509094 451.100250,262.264130 476.342865,238.041718 
	C487.721252,227.123154 503.539673,227.357407 514.220154,238.525528 
	C523.976135,248.727036 523.249695,266.159332 512.639526,276.409180 
	C488.439972,299.786957 464.239624,323.163879 439.786072,346.787659 
z"/>
<path fill="#f7f7f7" opacity="1.000000" stroke="none" 
	d="
M737.348328,544.988281 
	C712.467773,537.400391 696.716614,521.329712 692.298218,496.103424 
	C685.662048,458.214966 712.422363,428.036255 746.100830,424.487274 
	C776.560486,421.277557 805.692627,441.649506 812.487244,472.560883 
	C820.021729,506.838531 795.428223,542.016052 760.502014,546.428406 
	C752.728577,547.410400 745.269897,546.586792 737.348328,544.988281 
z"/>
</svg>